<svg xmlns="http://www.w3.org/2000/svg" xmlns:xlink="http://www.w3.org/1999/xlink" width="21" height="17" viewBox="0 0 21 17"><defs><path id="qnina" d="M307.6 31c-.4 0-.75-.13-1.05-.4l5.1-5.04.36.25c.38.28.69.5.93.65.23.16.55.31.94.48.4.16.77.24 1.11.24h.02c.34 0 .71-.08 1.1-.24.4-.17.72-.32.95-.48.24-.16.55-.37.93-.65l.36-.25 5.1 5.04c-.3.27-.65.4-1.06.4zm2.9-6.26L306 29.2v-7.68c.3.33.63.62 1.01.87 1.43.96 2.59 1.74 3.48 2.36zm13.5-3.23v7.68l-4.5-4.44c.96-.67 2.13-1.46 3.5-2.37.38-.26.71-.55 1-.87zm-.48-4.04c.32.3.48.68.48 1.12 0 .52-.16 1.02-.5 1.5-.32.48-.73.89-1.22 1.22l-3.68 2.54-1.02.7-.15.1a63.8 63.8 0 0 0-.82.58c-.14.1-.32.2-.52.32s-.4.2-.58.27c-.18.06-.35.09-.5.09h-.02c-.15 0-.32-.03-.5-.1a3.05 3.05 0 0 1-.58-.26 10.45 10.45 0 0 1-1.06-.7l-.28-.2-.15-.1a312.24 312.24 0 0 0-2.63-1.82c-1.15-.78-1.83-1.26-2.06-1.42-.42-.27-.8-.66-1.18-1.14a2.31 2.31 0 0 1-.55-1.36 2 2 0 0 1 .42-1.3c.27-.34.67-.51 1.19-.51h14.78c.44 0 .81.16 1.13.47z"/></defs><g><g transform="translate(-304 -15)"><use fill="#cecece" xlink:href="#qnina"/></g></g></svg>