<svg xmlns="http://www.w3.org/2000/svg" xmlns:xlink="http://www.w3.org/1999/xlink" width="12" height="17" viewBox="0 0 12 17"><defs><path id="uggha" d="M501 21.3v.66c0 1.61-1.33 3.24-2.15 4.86-.08.16-.26.33-.35.5l-.44.82L496.5 31c-.85-1.47-1.7-2.94-2.53-4.43-.76-1.4-1.79-2.88-1.95-4.27a6.29 6.29 0 0 1-.02-.36v-.6c.29-2.92 2.46-4.34 4.44-4.34 1.47 0 3.3.77 4.14 2.92.07.18.16.38.2.56.02.04.22.65.22.83zm-2.83.4c0-1-.72-1.8-1.64-1.8-.76 0-1.63.5-1.63 1.6v.38c0 .02 0 .3.05.43.31.86.94 1.17 1.53 1.17.92 0 1.7-.8 1.7-1.79z"/></defs><g><g transform="translate(-490 -15)"><use fill="#cecece" xlink:href="#uggha"/></g></g></svg>