<svg xmlns="http://www.w3.org/2000/svg" xmlns:xlink="http://www.w3.org/1999/xlink" width="18" height="18" viewBox="0 0 18 18"><defs><path id="4ueia" d="M128.68 28.08l-2.16-2.17a1.13 1.13 0 0 0-1.59.03l-1.09 1.1c-.06-.05-.14-.09-.21-.13-.69-.38-1.63-.9-2.62-1.9-1-1-1.52-1.94-1.9-2.63l-.11-.21.73-.73.36-.36c.44-.45.45-1.16.02-1.6l-2.16-2.16a1.12 1.12 0 0 0-1.59.03l-.6.61.01.02a3.54 3.54 0 0 0-.72 1.79c-.29 2.37.8 4.54 3.73 7.48 4.05 4.07 7.32 3.76 7.46 3.74a3.67 3.67 0 0 0 1.78-.72h.02l.62-.6c.44-.45.45-1.16.02-1.6z"/></defs><g><g transform="translate(-113 -15)"><use fill="#cecece" xlink:href="#4ueia"/></g></g></svg>