<svg xmlns="http://www.w3.org/2000/svg" xmlns:xlink="http://www.w3.org/1999/xlink" width="27" height="18" viewBox="0 0 27 18"><defs><path id="gbhoa" d="M1218.87 29.64a12.64 12.64 0 0 0-2.47-2.98l-.02-.03h-.01l-.02-.02c-.54-.52-.88-.87-1.02-1.05-.26-.34-.32-.68-.18-1.03.1-.27.48-.83 1.13-1.68l.81-1.08c1.44-1.96 2.07-3.22 1.87-3.76l-.07-.13c-.05-.08-.18-.15-.39-.21-.2-.06-.47-.07-.8-.03l-3.6.02a.46.46 0 0 0-.24.01l-.17.04-.06.03-.05.04a.56.56 0 0 0-.14.13.9.9 0 0 0-.12.23 21.07 21.07 0 0 1-2.19 4.25 4.54 4.54 0 0 1-1.12 1.3c-.14.1-.25.15-.33.13a7.32 7.32 0 0 1-.21-.05.84.84 0 0 1-.28-.31c-.07-.13-.12-.3-.14-.5a5.55 5.55 0 0 1-.04-1.13l.01-.54a32.34 32.34 0 0 1 .05-1.95l.01-.7a2.02 2.02 0 0 0-.17-.99.69.69 0 0 0-.26-.31 1.4 1.4 0 0 0-.42-.17c-.44-.1-1-.16-1.68-.17-1.55-.02-2.55.08-2.99.3-.17.1-.33.23-.47.39-.15.19-.18.29-.07.3.5.08.86.27 1.06.55l.08.16a6.06 6.06 0 0 1 .29 1.52 10.18 10.18 0 0 1-.29 3.23l-.15.28a.22.22 0 0 1-.06.07.92.92 0 0 1-.34.06c-.12 0-.26-.06-.42-.18a3.04 3.04 0 0 1-.52-.49c-.18-.2-.38-.5-.6-.87-.23-.38-.47-.82-.7-1.33l-.2-.38a31.56 31.56 0 0 1-1.1-2.36.84.84 0 0 0-.3-.4l-.06-.05a1.32 1.32 0 0 0-.49-.2l-3.42.04c-.35 0-.59.08-.71.24l-.05.08a.42.42 0 0 0-.04.2c0 .1.03.21.08.35a42.47 42.47 0 0 0 3.16 6.17 31.84 31.84 0 0 0 2.56 3.48l.31.3c.2.2.5.45.88.74.39.28.82.56 1.29.84a6.87 6.87 0 0 0 3.47.89h1.43c.3-.03.52-.12.67-.28l.04-.07a1.32 1.32 0 0 0 .14-.59c0-.36.02-.7.08-.98.07-.3.14-.52.22-.67a1.63 1.63 0 0 1 .48-.56.74.74 0 0 1 .1-.05c.2-.06.43 0 .7.2.27.2.53.45.77.74.23.3.52.63.85 1 .33.36.63.63.88.81l.25.16c.16.1.38.2.65.28.26.08.5.1.7.06l3.2-.05c.31 0 .56-.05.73-.16.18-.1.28-.22.31-.35.04-.13.04-.27 0-.44a1.64 1.64 0 0 0-.08-.34z"/></defs><g><g transform="translate(-1194 -15)"><use fill="#fe5621" xlink:href="#gbhoa"/></g></g></svg>