<svg xmlns="http://www.w3.org/2000/svg" xmlns:xlink="http://www.w3.org/1999/xlink" width="15" height="17" viewBox="0 0 15 17"><defs><path id="4tz6a" d="M1251 26.88c0 .92 0 1.9-.2 2.8a1.5 1.5 0 0 1-1.3 1.15c-1.5.17-3 .17-4.5.17s-3 0-4.5-.17a1.5 1.5 0 0 1-1.29-1.16c-.2-.9-.2-1.87-.2-2.79 0-.92 0-1.9.2-2.8a1.5 1.5 0 0 1 1.3-1.15c1.49-.17 3-.17 4.5-.17s3 0 4.49.17a1.5 1.5 0 0 1 1.3 1.16c.2.9.2 1.87.2 2.79zm-8.58-2.84h-2.52v.74h.85v4.55h.8v-4.55h.87zm2.2 5.29v-3.95h-.73v3.02c-.16.22-.31.33-.46.33-.1 0-.15-.06-.17-.17V25.4h-.73v3.11c0 .28.02.47.06.59.08.2.24.29.47.29.27 0 .54-.16.83-.49v.44zm2.75-2.76c0-.37-.02-.63-.07-.79-.1-.3-.3-.44-.58-.44-.27 0-.52.14-.75.42v-1.72h-.73v5.29h.73v-.39c.24.3.49.44.75.44.29 0 .48-.15.58-.44.05-.17.07-.43.07-.8zm2.74.91v-.81c0-.42-.07-.73-.23-.93-.2-.27-.49-.4-.85-.4-.37 0-.66.13-.87.4-.15.2-.22.5-.22.93v1.38c0 .42.07.73.23.93.2.26.5.4.88.4a1 1 0 0 0 1.04-.86l.02-.46v-.1h-.74c0 .29-.01.44-.02.48-.04.2-.14.29-.32.29-.25 0-.37-.18-.37-.55v-.7zm-.73-.95v.36h-.72v-.36c0-.37.12-.55.36-.55s.36.18.36.55zm-2.73-.01v1.68c0 .35-.11.53-.32.53-.12 0-.24-.06-.36-.18v-2.4c.12-.12.24-.17.36-.17.2 0 .32.18.32.54zm-.39-4.42a1.98 1.98 0 0 1-.06-.59v-3.15h.73v3.21c.02.12.08.17.18.17.15 0 .3-.1.46-.33v-3.05h.74v3.98h-.74v-.43c-.29.33-.57.49-.83.49-.24 0-.4-.1-.48-.3zm-5.12-3.61l-.53-1.49h.86l.58 2.1.55-2.1h.82l-.98 3.18v2.16h-.8v-2.16c-.08-.38-.24-.95-.5-1.7zm2.52 3.5c-.16-.2-.23-.51-.23-.94v-1.39c0-.43.07-.74.23-.94a1 1 0 0 1 .85-.4 1 1 0 0 1 .86.4c.15.2.22.51.22.94v1.4c0 .42-.07.73-.22.93a1 1 0 0 1-.86.4 1 1 0 0 1-.85-.4zm.5-.8c0 .37.12.55.35.55.24 0 .35-.18.35-.55v-1.67c0-.37-.11-.56-.35-.56-.23 0-.35.19-.35.56z"/></defs><g><g transform="translate(-1238 -15)"><use fill="#cecece" xlink:href="#4tz6a"/></g></g></svg>